<?xml version="1.0" encoding="utf-8"?>
<!-- Generator: Adobe Illustrator 25.1.0, SVG Export Plug-In . SVG Version: 6.00 Build 0)  -->
<svg version="1.1" id="レイヤー_1" xmlns="http://www.w3.org/2000/svg" xmlns:xlink="http://www.w3.org/1999/xlink" x="0px"
	 y="0px" viewBox="0 0 740 740" style="enable-background:new 0 0 740 740;" xml:space="preserve">
<style type="text/css">
	.st0{fill:#EB6400;}
</style>
<g id="logo">
</g>
<path class="st0" d="M495,320c0-96.5-78.5-175-175-175s-175,78.5-175,175s78.5,175,175,175S495,416.5,495,320z M695,645
	c0,27.3-22.6,50-50,50c-13.3,0-26.2-5.5-35.1-14.8l-134-133.6C430.1,578.2,375.4,595,320,595c-151.9,0-275-123-275-275
	s123-275,275-275s275,123,275,275c0,55.5-16.8,110.1-48.4,155.8l134,134C689.5,618.8,695,631.7,695,645L695,645z"/>
</svg>
